<svg width="32" height="32" viewBox="0 0 32 32" fill="none" xmlns="http://www.w3.org/2000/svg">
<path fill-rule="evenodd" clip-rule="evenodd" d="M4 8C4 6.93913 4.42143 5.92172 5.17157 5.17157C5.92172 4.42143 6.93913 4 8 4H24C25.0609 4 26.0783 4.42143 26.8284 5.17157C27.5786 5.92172 28 6.93913 28 8V24C28 25.0609 27.5786 26.0783 26.8284 26.8284C26.0783 27.5786 25.0609 28 24 28H8C6.93913 28 5.92172 27.5786 5.17157 26.8284C4.42143 26.0783 4 25.0609 4 24V8ZM23 16C22.9998 16.2651 22.8943 16.5193 22.7067 16.7067L19.7067 19.7067C19.6151 19.8049 19.5047 19.8837 19.3821 19.9384C19.2594 19.993 19.127 20.0224 18.9927 20.0248C18.8584 20.0272 18.7251 20.0025 18.6005 19.9522C18.476 19.9019 18.3629 19.827 18.268 19.7321C18.173 19.6371 18.0981 19.524 18.0478 19.3995C17.9975 19.2749 17.9728 19.1416 17.9752 19.0073C17.9776 18.873 18.007 18.7406 18.0616 18.6179C18.1163 18.4953 18.1951 18.3849 18.2933 18.2933L20.5867 16L18.2933 13.7067C18.1951 13.6151 18.1163 13.5047 18.0616 13.3821C18.007 13.2594 17.9776 13.127 17.9752 12.9927C17.9728 12.8584 17.9975 12.7251 18.0478 12.6005C18.0981 12.476 18.173 12.3629 18.268 12.268C18.3629 12.173 18.476 12.0981 18.6005 12.0478C18.7251 11.9975 18.8584 11.9728 18.9927 11.9752C19.127 11.9776 19.2594 12.007 19.3821 12.0616C19.5047 12.1163 19.6151 12.1951 19.7067 12.2933L22.7067 15.2933C22.8947 15.48 23 15.7347 23 16ZM9.29333 15.2933C9.10607 15.4808 9.00088 15.735 9.00088 16C9.00088 16.265 9.10607 16.5192 9.29333 16.7067L12.2933 19.7067C12.3849 19.8049 12.4953 19.8837 12.6179 19.9384C12.7406 19.993 12.873 20.0224 13.0073 20.0248C13.1416 20.0272 13.2749 20.0025 13.3995 19.9522C13.524 19.9019 13.6371 19.827 13.7321 19.7321C13.827 19.6371 13.9019 19.524 13.9522 19.3995C14.0025 19.2749 14.0272 19.1416 14.0248 19.0073C14.0224 18.873 13.993 18.7406 13.9384 18.6179C13.8837 18.4953 13.8049 18.3849 13.7067 18.2933L11.4133 16L13.7067 13.7067C13.8049 13.6151 13.8837 13.5047 13.9384 13.3821C13.993 13.2594 14.0224 13.127 14.0248 12.9927C14.0272 12.8584 14.0025 12.7251 13.9522 12.6005C13.9019 12.476 13.827 12.3629 13.7321 12.268C13.6371 12.173 13.524 12.0981 13.3995 12.0478C13.2749 11.9975 13.1416 11.9728 13.0073 11.9752C12.873 11.9776 12.7406 12.007 12.6179 12.0616C12.4953 12.1163 12.3849 12.1951 12.2933 12.2933L9.29333 15.2933Z" fill="white"/>
</svg>
