<svg width="18" height="18" viewBox="0 0 32 32" fill="none" xmlns="http://www.w3.org/2000/svg">
<path d="M15.6 3.73998C15.7262 3.68492 15.8623 3.65649 16 3.65649C16.1377 3.65649 16.2738 3.68492 16.4 3.73998C21.3307 5.89518 26.0341 8.53717 30.44 11.6266C30.5953 11.7355 30.7164 11.8863 30.7892 12.0614C30.862 12.2366 30.8835 12.4288 30.8512 12.6156C30.8189 12.8025 30.7342 12.9764 30.6068 13.1169C30.4795 13.2574 30.3148 13.3588 30.132 13.4093C25.5579 14.6726 21.1318 16.4212 16.9293 18.6253L16.9253 18.628L16.472 18.868C16.327 18.9455 16.1651 18.986 16.0007 18.986C15.8362 18.986 15.6744 18.9455 15.5293 18.868C13.7276 17.9051 11.8825 17.0255 10 16.232V15.9333C10 15.7586 10.0893 15.6026 10.2293 15.5186C12.2418 14.2991 14.3123 13.1777 16.4333 12.1586C16.6724 12.0437 16.856 11.8385 16.9438 11.5882C17.0315 11.3379 17.0163 11.063 16.9013 10.824C16.7864 10.5849 16.5812 10.4013 16.3309 10.3136C16.0806 10.2258 15.8057 10.2411 15.5667 10.356C13.3877 11.403 11.2608 12.5551 9.19333 13.808C8.8992 13.9864 8.64546 14.2242 8.44827 14.5061C8.25107 14.7879 8.11476 15.1078 8.048 15.4453C6.02294 14.6661 3.96092 13.9866 1.86933 13.4093C1.68653 13.3588 1.52184 13.2574 1.3945 13.1169C1.26715 12.9764 1.18239 12.8025 1.1501 12.6156C1.11781 12.4288 1.13933 12.2366 1.21214 12.0614C1.28496 11.8863 1.40606 11.7355 1.56133 11.6266C5.96686 8.53727 10.6697 5.89528 15.6 3.73998Z" fill="white"/>
<path d="M17.4133 20.6308C20.6883 18.881 24.1081 17.417 27.6346 16.2548C27.8133 18.1401 27.928 20.0454 27.9746 21.9681C27.9795 22.1693 27.9236 22.3673 27.8142 22.5361C27.7048 22.705 27.5469 22.837 27.3613 22.9148C23.5817 24.4934 19.9628 26.4321 16.5546 28.7041C16.3904 28.8136 16.1974 28.872 16 28.872C15.8026 28.872 15.6096 28.8136 15.4453 28.7041C12.0376 26.4321 8.41913 24.4934 4.63997 22.9148C4.45411 22.8372 4.29599 22.7053 4.18631 22.5364C4.07664 22.3675 4.02052 22.1694 4.02531 21.9681C4.07197 20.0454 4.18664 18.1414 4.36531 16.2534C5.58978 16.657 6.80188 17.0972 7.99997 17.5734V19.2668C7.71189 19.4327 7.46972 19.6679 7.29539 19.951C7.12106 20.2342 7.02006 20.5563 7.00153 20.8882C6.983 21.2202 7.04752 21.5515 7.18926 21.8523C7.331 22.1531 7.54548 22.4137 7.81331 22.6108C7.69331 23.1174 7.51731 23.6148 7.28397 24.0908C7.88664 24.3748 8.48531 24.6694 9.07864 24.9721C9.41317 24.2913 9.66003 23.5709 9.81331 22.8281C10.1505 22.6782 10.4396 22.4379 10.6487 22.1338C10.8578 21.8298 10.9787 21.4738 10.998 21.1053C11.0173 20.7368 10.9343 20.3701 10.7582 20.0459C10.582 19.7216 10.3196 19.4524 9.99997 19.2681V18.4081C11.5575 19.0889 13.0875 19.8308 14.5866 20.6321C15.0215 20.8644 15.5069 20.9859 16 20.9859C16.493 20.9859 16.9784 20.8644 17.4133 20.6321V20.6308Z" fill="white"/>
<path d="M5.94933 25.9492C6.50933 25.3906 6.95333 24.7626 7.28266 24.0906C7.88666 24.3746 8.48533 24.6692 9.07866 24.9719C8.64238 25.858 8.06306 26.6662 7.364 27.3639C7.27245 27.4622 7.16205 27.541 7.03938 27.5956C6.91671 27.6503 6.7843 27.6797 6.65003 27.682C6.51576 27.6844 6.38238 27.6597 6.25787 27.6094C6.13335 27.5591 6.02024 27.4843 5.92528 27.3893C5.83032 27.2943 5.75546 27.1812 5.70517 27.0567C5.65487 26.9322 5.63017 26.7988 5.63254 26.6645C5.63491 26.5303 5.6643 26.3979 5.71895 26.2752C5.77361 26.1525 5.85241 26.0421 5.95066 25.9506L5.94933 25.9492Z" fill="white"/>
</svg>